<svg xmlns="http://www.w3.org/2000/svg" width="251.718" height="80.056" viewBox="0 0 251.718 80.056"><g transform="translate(125.859 40.028)"><g transform="translate(-125.859 -40.028)"><path d="M21.972,56.194a.708.708,0,0,1-.148-.016.694.694,0,0,1-.53-.827,6.027,6.027,0,0,1,2.738-3.4,45.412,45.412,0,0,1,5.184-2.83l.611-.3c4.511-2.221,8.07-4.3,9.444-9.027,2.2-7.564-3.429-13.792-8.395-19.287-1.012-1.12-1.968-2.177-2.855-3.236a40.575,40.575,0,0,1-7.44-14.11,40.589,40.589,0,0,1-7.44,14.11c-.887,1.059-1.843,2.116-2.854,3.236C5.32,26-.31,32.228,1.892,39.792c1.375,4.738,4.932,6.808,9.438,9.022a.481.481,0,0,1,.048.026l.572.281a45.284,45.284,0,0,1,5.183,2.83,6.026,6.026,0,0,1,2.737,3.4.694.694,0,1,1-1.356.3,4.742,4.742,0,0,0-2.147-2.541,44.421,44.421,0,0,0-5.027-2.74l-.617-.3-.047-.026C6.893,48.181,2.208,45.861.558,40.18c-2.417-8.307,3.488-14.84,8.7-20.6,1-1.11,1.95-2.157,2.819-3.2A40.818,40.818,0,0,0,19.911.512a.694.694,0,0,1,1.34,0,40.807,40.807,0,0,0,7.835,15.866c.87,1.039,1.817,2.086,2.82,3.2,5.209,5.764,11.115,12.3,8.7,20.605-1.654,5.694-6.372,8.017-10.163,9.884l-.613.3a44.5,44.5,0,0,0-5.03,2.741,4.738,4.738,0,0,0-2.148,2.542A.7.7,0,0,1,21.972,56.194Z" transform="translate(0)" fill="#1a1311"/><g transform="translate(10.327 48.743)"><path d="M22.393,95.351h-.021a.694.694,0,0,1-.673-.715c.3-10.2.651-21.764-7.9-29.386a.694.694,0,0,1,.924-1.036c9.032,8.052,8.661,20.478,8.362,30.463A.7.7,0,0,1,22.393,95.351Z" transform="translate(-13.568 -64.037)" fill="#1a1311"/><path d="M28.665,95.352a.7.7,0,0,1-.693-.674c-.3-9.98-.671-22.4,8.352-30.458a.694.694,0,1,1,.925,1.035c-8.54,7.626-8.195,19.184-7.889,29.381a.694.694,0,0,1-.673.715Z" transform="translate(-16.981 -64.039)" fill="#1a1311"/></g><path d="M27.419,48.275H23.562a3.015,3.015,0,0,1-3.012-3.012V28.421a5.027,5.027,0,0,1,4.613-5.075,4.9,4.9,0,0,1,3.705,1.324,4.958,4.958,0,0,1,1.563,3.6V45.263A3.015,3.015,0,0,1,27.419,48.275Zm-1.927-23.55c-.08,0-.159,0-.24.008a3.636,3.636,0,0,0-3.314,3.689V45.263a1.626,1.626,0,0,0,1.624,1.624h3.857a1.626,1.626,0,0,0,1.624-1.624V28.276a3.552,3.552,0,0,0-3.55-3.552Z" transform="translate(-4.908 -5.573)" fill="#1a1311"/><g transform="translate(18.496 41.313)"><path d="M24.994,64.986a.694.694,0,0,1-.694-.694V54.97a.694.694,0,0,1,1.388,0v9.321A.694.694,0,0,1,24.994,64.986Z" transform="translate(-24.3 -54.276)" fill="#1a1311"/><path d="M28.648,64.986a.694.694,0,0,1-.694-.694V54.97a.694.694,0,1,1,1.388,0v9.321A.694.694,0,0,1,28.648,64.986Z" transform="translate(-25.173 -54.276)" fill="#1a1311"/></g><g transform="translate(9.288 8.528)"><path d="M51.555,99.638a58.6,58.6,0,0,1-7.816-.518A22.688,22.688,0,0,1,33.6,95.42c-1.168-.823-3.166-2.44-3.431-4.029a.676.676,0,0,1,0-.228c.266-1.6,2.264-3.211,3.431-4.029a22.685,22.685,0,0,1,10.135-3.7h0c12.716-1.707,25.633.651,39.491,7.215a.694.694,0,0,1,0,1.255C72.376,97.048,61.756,99.638,51.555,99.638ZM31.567,91.278A7.319,7.319,0,0,0,34.4,94.283a21.311,21.311,0,0,0,9.521,3.46c12.038,1.618,24.274-.5,37.363-6.47-13.1-5.968-25.332-8.083-37.363-6.467A21.325,21.325,0,0,0,34.4,88.27,7.375,7.375,0,0,0,31.567,91.278Z" transform="translate(-16.492 -28.326)" fill="#1a1311"/><path d="M13.864,94.287A.693.693,0,0,1,13.3,94c-1.592-2.232-1.1-6.731-.67-9.213a38.006,38.006,0,0,1,5.166-13.2.694.694,0,0,1,1.186.722A36.651,36.651,0,0,0,14,85.02c-.248,1.426-.951,6.226.433,8.169a.695.695,0,0,1-.565,1.1Z" transform="translate(-12.202 -25.544)" fill="#1a1311"/><path d="M55.336,67.185a.694.694,0,0,1-.463-1.212c14.679-13.106,26.207-30.9,34.278-52.919a141.532,141.532,0,0,0-37.8,20.275.694.694,0,1,1-.846-1.1c11.037-8.5,24.352-15.556,39.574-20.985a.694.694,0,0,1,.888.887c-8.171,22.877-20,41.34-35.164,54.877A.693.693,0,0,1,55.336,67.185Z" transform="translate(-21.285 -11.204)" fill="#1a1311"/></g><g transform="translate(98.122 28.097)"><path d="M128.911,36.913h4.215V63.2h5.983v3.943h-10.2Z" transform="translate(-128.911 -36.913)" fill="#1a1311"/><path d="M163.172,61.577c.045,1.541.045,1.541.045,2.085,0,3.943-1.949,6.119-5.484,6.119a4.909,4.909,0,0,1-4.08-1.9,6.419,6.419,0,0,1-1.224-4.441V52.919c0-4.215,1.813-6.3,5.439-6.3,3.309,0,5.3,2.131,5.3,5.62v6.618h-6.8v4.986c0,1.633.408,2.312,1.405,2.312,1.042,0,1.5-.816,1.5-2.675v-1.9Zm-3.944-5.847V51.922c0-1.087-.5-1.677-1.405-1.677s-1.451.635-1.451,1.677v3.807Z" transform="translate(-134.528 -39.231)" fill="#1a1311"/><path d="M198.333,36.913c3.625,0,4.713.317,6.209,1.813,1.315,1.315,1.859,3.036,1.859,5.8,0,3.808-.635,5.394-2.72,6.709,2.448.951,3.264,2.673,3.264,7.025,0,3.626-.408,5.3-1.586,6.708-1.315,1.541-3.264,2.175-6.618,2.175h-4.215V36.913Zm1,12.555c2.447,0,2.946-.77,2.946-4.578,0-3.218-.589-4.033-2.946-4.033h-.59v8.612ZM199.148,63.2c2.946,0,3.581-.907,3.581-4.9s-.635-4.9-3.581-4.9h-.408V63.2Z" transform="translate(-144.582 -36.913)" fill="#1a1311"/><path d="M228.822,69.563l-.317-1.949c-1.632,1.723-2.538,2.267-3.672,2.267a2.977,2.977,0,0,1-2.4-1.269c-.5-.771-.635-1.632-.635-3.9V47.036h3.944V64.577c0,1.133.317,1.678,1,1.678.544,0,.951-.227,1.768-.907V47.036h3.943V69.563Z" transform="translate(-151.095 -39.331)" fill="#1a1311"/><path d="M250.748,46.935v2.81c1.043-2.176,2.357-3.218,3.989-3.128v4.4a8.528,8.528,0,0,0-1.451-.181c-1.723,0-2.538,1.087-2.538,3.354V69.461H246.8V46.935Z" transform="translate(-157.068 -39.229)" fill="#1a1311"/><path d="M277.553,61.577c.046,1.541.046,1.541.046,2.085,0,3.943-1.949,6.119-5.485,6.119a4.907,4.907,0,0,1-4.079-1.9,6.419,6.419,0,0,1-1.224-4.441V52.919c0-4.215,1.813-6.3,5.439-6.3,3.309,0,5.3,2.131,5.3,5.62v6.618h-6.8v4.986c0,1.633.408,2.312,1.405,2.312,1.042,0,1.5-.816,1.5-2.675v-1.9Zm-3.944-5.847V51.922c0-1.087-.5-1.677-1.405-1.677s-1.45.635-1.45,1.677v3.807Z" transform="translate(-161.846 -39.231)" fill="#1a1311"/><path d="M298.591,69.463a9.094,9.094,0,0,1-.272-1.813,3.949,3.949,0,0,1-3.354,2.131c-2.266,0-3.444-1.949-3.444-5.711a7.91,7.91,0,0,1,1.9-5.62c.951-1.042.951-1.042,4.125-3.128.091-.045.362-.226.77-.5V52.285c0-1.723-.181-2.04-1.224-2.04-1.178,0-1.45.59-1.631,3.31h-3.808c.227-2.448.454-3.491,1.043-4.533a4.706,4.706,0,0,1,4.442-2.4c3.309,0,5.121,1.9,5.121,5.394V65.838a9.791,9.791,0,0,0,.409,3.625Zm-.272-11.558a6.634,6.634,0,0,0-2.855,5.847c0,1.542.407,2.357,1.223,2.357.589,0,1.088-.362,1.632-1.179Z" transform="translate(-167.748 -39.231)" fill="#1a1311"/><path d="M320.56,46.936l.091,1.949c1.632-1.723,2.538-2.267,3.672-2.267a2.975,2.975,0,0,1,2.4,1.27c.5.77.634,1.631.634,3.9V69.463h-3.943V51.922c0-1.133-.317-1.677-1-1.677-.544,0-.952.226-1.768.907V69.463h-3.943V46.936Z" transform="translate(-173.764 -39.231)" fill="#1a1311"/><g transform="translate(43.259 37.755)"><path d="M192.105,90.289a6.086,6.086,0,0,1-1.248,2.337,6.324,6.324,0,0,1-3.012,1.822l-.835-.954a5.688,5.688,0,0,0,2.918-1.476,3.654,3.654,0,0,0,.868-1.459h-4.074c-.2,0-.624.008-.979.043V89.5c.355.025.717.05.979.05H190.9a1.763,1.763,0,0,0,.615-.084l.751.464A3.21,3.21,0,0,0,192.105,90.289ZM187.4,87.53h3.248a8.019,8.019,0,0,0,.911-.041v1.088c-.228-.018-.625-.026-.927-.026H187.4c-.27,0-.633.008-.877.026V87.489A7.167,7.167,0,0,0,187.4,87.53Z" transform="translate(-185.744 -86.747)" fill="#1a1311"/><path d="M206.536,91.438a1.08,1.08,0,1,1-1.08-1.079A1.087,1.087,0,0,1,206.536,91.438Z" transform="translate(-190.194 -87.432)" fill="#1a1311"/><path d="M219.159,88.133v1.594a21.028,21.028,0,0,0,2.919-.936,5.374,5.374,0,0,0,.919-.455l.456,1.072c-.329.135-.709.295-.987.4a29.131,29.131,0,0,1-3.307,1.03v1.56c0,.363.169.455.549.531a7.785,7.785,0,0,0,.978.05,14.229,14.229,0,0,0,2.936-.3v1.232a23.837,23.837,0,0,1-3,.177A9.339,9.339,0,0,1,219.2,94a1.217,1.217,0,0,1-1.156-1.264v-4.6a6.889,6.889,0,0,0-.068-.877h1.249A6.379,6.379,0,0,0,219.159,88.133Zm4.377-.084-.682.287a10.131,10.131,0,0,0-.658-1.173l.666-.27C223.073,87.205,223.377,87.737,223.537,88.049Zm1-.387-.667.286a8.917,8.917,0,0,0-.683-1.164l.666-.269A9.27,9.27,0,0,1,224.542,87.661Z" transform="translate(-193.443 -86.514)" fill="#1a1311"/><path d="M238.871,90.933c-.068.5-.287,1.949-.413,2.749H239c.219,0,.607-.008.827-.033v1.088c-.168-.008-.582-.025-.81-.025h-4.437c-.3,0-.515.008-.835.025v-1.1a7.946,7.946,0,0,0,.835.042h2.733c.118-.717.3-1.914.328-2.387h-2.277c-.27,0-.6.025-.843.043V90.224c.218.025.607.05.834.05h2.16a1.913,1.913,0,0,0,.623-.092l.818.4A2.467,2.467,0,0,0,238.871,90.933Z" transform="translate(-197.208 -87.39)" fill="#1a1311"/><path d="M250.52,90.908h4.53c.4,0,.767-.034.986-.05v1.324c-.2-.008-.633-.042-.986-.042h-4.53c-.481,0-1.046.017-1.359.042V90.858C249.465,90.883,250.08,90.908,250.52,90.908Z" transform="translate(-200.89 -87.551)" fill="#1a1311"/><path d="M266.392,88.148h4.639c.211,0,.532,0,.836-.018-.018.253-.018.565-.018.818v4.133c0,.33.018,1.139.018,1.173H270.7c0-.017.008-.211.008-.456h-4.066c.008.237.008.43.008.456H265.49c0-.042.025-.776.025-1.181V88.949c0-.236,0-.582-.018-.818C265.843,88.139,266.164,88.148,266.392,88.148Zm.253,4.572h4.075v-3.5h-4.075Z" transform="translate(-204.79 -86.9)" fill="#1a1311"/></g></g></g></g></svg>